<svg width="14" height="14" viewBox="0 0 14 14" fill="none" xmlns="http://www.w3.org/2000/svg">
<path d="M12.7417 2.01695C12.3647 1.63974 11.917 1.34052 11.4242 1.13637C10.9315 0.932224 10.4034 0.827148 9.86999 0.827148C9.33663 0.827148 8.8085 0.932224 8.31576 1.13637C7.82302 1.34052 7.37532 1.63974 6.99824 2.01695L0.94441 8.0702C0.387971 8.63212 0.0766838 9.39152 0.0786223 10.1823C0.0805607 10.9731 0.395567 11.731 0.954755 12.2902C1.51394 12.8494 2.27181 13.1644 3.06261 13.1663C3.85342 13.1683 4.61282 12.857 5.17474 12.3005L10.0917 7.38245C10.2814 7.20685 10.4337 6.99475 10.5396 6.75887C10.6454 6.52299 10.7025 6.26817 10.7075 6.00969C10.7125 5.7512 10.6652 5.49437 10.5686 5.25458C10.472 5.01479 10.3279 4.79698 10.1451 4.61419C9.96225 4.4314 9.7444 4.2874 9.50459 4.19081C9.26478 4.09422 9.00794 4.04703 8.74946 4.05208C8.49098 4.05712 8.23617 4.11429 8.00031 4.22016C7.76445 4.32603 7.55239 4.47842 7.37683 4.6682L4.34991 7.6922C4.29567 7.74636 4.25264 7.81067 4.22326 7.88146C4.19387 7.95225 4.17872 8.02814 4.17867 8.10479C4.17862 8.18143 4.19366 8.25734 4.22294 8.32818C4.25222 8.39901 4.29517 8.46338 4.34933 8.51762C4.40349 8.57185 4.4678 8.61489 4.53859 8.64427C4.60938 8.67365 4.68527 8.6888 4.76191 8.68886C4.83856 8.68891 4.91447 8.67387 4.9853 8.64459C5.05614 8.61531 5.12051 8.57236 5.17474 8.5182L8.20166 5.49012C8.34431 5.35401 8.53455 5.27912 8.7317 5.28146C8.92884 5.2838 9.11725 5.36319 9.25663 5.50264C9.39601 5.64209 9.47529 5.83054 9.47752 6.02769C9.47975 6.22484 9.40476 6.41504 9.26858 6.55762L4.34991 11.4757C4.00769 11.8179 3.54355 12.0102 3.05958 12.0102C2.57561 12.0102 2.11146 11.8179 1.76924 11.4757C1.42703 11.1335 1.23477 10.6693 1.23477 10.1854C1.23477 9.7014 1.42703 9.23725 1.76924 8.89503L7.82308 2.84178C8.36595 2.29891 9.10225 1.99392 9.86999 1.99392C10.6377 1.99392 11.374 2.29891 11.9169 2.84178C12.4598 3.38466 12.7648 4.12096 12.7648 4.8887C12.7648 5.65644 12.4598 6.39274 11.9169 6.93562L7.37683 11.4757C7.32111 11.5295 7.27667 11.5939 7.2461 11.665C7.21553 11.7362 7.19944 11.8128 7.19876 11.8902C7.19809 11.9677 7.21285 12.0445 7.24218 12.1162C7.27151 12.1879 7.31483 12.253 7.3696 12.3078C7.42437 12.3625 7.4895 12.4058 7.56119 12.4352C7.63288 12.4645 7.70969 12.4793 7.78714 12.4786C7.8646 12.4779 7.94114 12.4618 8.01231 12.4313C8.08348 12.4007 8.14785 12.3562 8.20166 12.3005L12.7417 7.75987C13.119 7.38283 13.4183 6.93514 13.6225 6.4424C13.8267 5.94965 13.9318 5.4215 13.9318 4.88812C13.9318 4.35474 13.8267 3.82658 13.6225 3.33384C13.4183 2.84109 13.119 2.39341 12.7417 2.01637V2.01695Z" fill="currentcolor"/>
</svg>
