<svg width="14" height="14" viewBox="0 0 14 14" fill="none" xmlns="http://www.w3.org/2000/svg">
<path d="M12.5417 0.875H1.45841C1.149 0.875 0.852249 0.997916 0.633457 1.21671C0.414664 1.4355 0.291748 1.73225 0.291748 2.04167V9.625C0.291748 9.93442 0.414664 10.2312 0.633457 10.45C0.852249 10.6688 1.149 10.7917 1.45841 10.7917H3.79175V12.5417C3.79177 12.657 3.826 12.7698 3.8901 12.8657C3.9542 12.9616 4.04529 13.0363 4.15187 13.0805C4.25844 13.1246 4.37571 13.1362 4.48885 13.1137C4.60199 13.0912 4.70592 13.0356 4.7875 12.9541L6.95108 10.7917H12.5417C12.8512 10.7917 13.1479 10.6688 13.3667 10.45C13.5855 10.2312 13.7084 9.93442 13.7084 9.625V2.04167C13.7084 1.73225 13.5855 1.4355 13.3667 1.21671C13.1479 0.997916 12.8512 0.875 12.5417 0.875ZM12.5417 9.478C12.5417 9.51668 12.5264 9.55377 12.499 9.58112C12.4717 9.60847 12.4346 9.62383 12.3959 9.62383H6.70842C6.55372 9.62387 6.40537 9.68535 6.296 9.79475L4.95842 11.1323V10.2083C4.95842 10.0536 4.89696 9.90525 4.78756 9.79585C4.67816 9.68646 4.52979 9.625 4.37508 9.625H1.60425C1.56557 9.625 1.52848 9.60964 1.50113 9.58229C1.47378 9.55494 1.45841 9.51784 1.45841 9.47917V2.1875C1.45841 2.14882 1.47378 2.11173 1.50113 2.08438C1.52848 2.05703 1.56557 2.04167 1.60425 2.04167H12.3959C12.4346 2.04167 12.4717 2.05703 12.499 2.08438C12.5264 2.11173 12.5417 2.14882 12.5417 2.1875V9.478Z" fill="currentcolor"/>
</svg>
