<svg width="16" height="16" viewBox="0 0 16 16" fill="none" xmlns="http://www.w3.org/2000/svg">
<g clip-path="url(#clip0_33994_259984)">
<path d="M15.5828 0.191315C15.3672 0.0367921 15.0991 -0.0257857 14.8375 0.0173472C14.5758 0.06048 14.342 0.205791 14.1874 0.421315L4.83075 13.4667L1.70742 10.3406C1.61457 10.2478 1.50434 10.1741 1.38302 10.1238C1.26169 10.0735 1.13165 10.0476 1.00032 10.0476C0.868987 10.0475 0.738934 10.0734 0.617587 10.1236C0.496239 10.1738 0.385973 10.2475 0.293085 10.3403C0.200196 10.4332 0.126505 10.5434 0.0762171 10.6647C0.0259296 10.786 3.09789e-05 10.9161 2.77749e-08 11.0474C-3.09234e-05 11.1787 0.0258064 11.3088 0.0760368 11.4301C0.126267 11.5515 0.199907 11.6618 0.292751 11.7546L4.24942 15.7106C4.3533 15.8106 4.47725 15.8873 4.61304 15.9357C4.74884 15.9841 4.89337 16.0031 5.03706 15.9914C5.18074 15.9796 5.32029 15.9375 5.44644 15.8677C5.57259 15.7979 5.68246 15.7021 5.76875 15.5866L15.8128 1.58665C15.9673 1.37111 16.0299 1.10302 15.9867 0.84135C15.9436 0.579677 15.7983 0.345854 15.5828 0.191315Z" fill="#2E8540"/>
</g>
<defs>
<clipPath id="clip0_33994_259984">
<rect width="16" height="16" fill="white"/>
</clipPath>
</defs>
</svg>
